<mxfile host="app.diagrams.net" modified="2022-03-21T12:44:23.066Z" agent="5.0 (Windows NT 10.0; Win64; x64) AppleWebKit/537.36 (KHTML, like Gecko) Chrome/99.0.4844.74 Safari/537.36" etag="sVRHw0vCEUmHPAhtCxWy" version="17.1.3" type="github">
  <diagram name="Page-1" id="74e2e168-ea6b-b213-b513-2b3c1d86103e">
    <mxGraphModel dx="1422" dy="762" grid="0" gridSize="10" guides="1" tooltips="1" connect="1" arrows="1" fold="1" page="1" pageScale="1" pageWidth="1100" pageHeight="850" background="none" math="0" shadow="0">
      <root>
        <mxCell id="0" />
        <mxCell id="1" parent="0" />
        <mxCell id="-Ba3HVB5AIwngs6JfTIK-3" value="" style="rounded=0;whiteSpace=wrap;html=1;fillColor=none;strokeWidth=1;dashed=1;" vertex="1" parent="1">
          <mxGeometry x="203" y="977" width="650" height="533" as="geometry" />
        </mxCell>
        <mxCell id="77e6c97f196da883-1" value="配置流程" style="swimlane;html=1;childLayout=stackLayout;startSize=20;rounded=0;shadow=0;labelBackgroundColor=none;strokeWidth=1;fontFamily=Verdana;fontSize=8;align=center;fillColor=#f5f5f5;fontColor=#333333;strokeColor=#666666;" parent="1" vertex="1">
          <mxGeometry x="70" y="40" width="960" height="900" as="geometry" />
        </mxCell>
        <mxCell id="77e6c97f196da883-2" value="开发者" style="swimlane;html=1;startSize=20;fillColor=#f5f5f5;fontColor=#333333;strokeColor=#666666;" parent="77e6c97f196da883-1" vertex="1">
          <mxGeometry y="20" width="160" height="880" as="geometry" />
        </mxCell>
        <mxCell id="77e6c97f196da883-8" value="修改配置" style="rounded=1;whiteSpace=wrap;html=1;shadow=0;labelBackgroundColor=none;strokeWidth=1;fontFamily=Verdana;fontSize=8;align=center;" parent="77e6c97f196da883-2" vertex="1">
          <mxGeometry x="20" y="65" width="100" height="60" as="geometry" />
        </mxCell>
        <mxCell id="77e6c97f196da883-9" value="配置灰度策略" style="rounded=1;whiteSpace=wrap;html=1;shadow=0;labelBackgroundColor=none;strokeWidth=1;fontFamily=Verdana;fontSize=8;align=center;" parent="77e6c97f196da883-2" vertex="1">
          <mxGeometry x="20" y="155" width="100" height="60" as="geometry" />
        </mxCell>
        <mxCell id="HXN2SgdadtcGcGAbl6m7-10" style="edgeStyle=orthogonalEdgeStyle;rounded=0;orthogonalLoop=1;jettySize=auto;html=1;entryX=0;entryY=0.5;entryDx=0;entryDy=0;" parent="77e6c97f196da883-2" source="HXN2SgdadtcGcGAbl6m7-7" target="77e6c97f196da883-8" edge="1">
          <mxGeometry relative="1" as="geometry">
            <Array as="points">
              <mxPoint x="-40" y="360" />
              <mxPoint x="-40" y="95" />
            </Array>
          </mxGeometry>
        </mxCell>
        <mxCell id="HXN2SgdadtcGcGAbl6m7-11" value="人工检查" style="edgeLabel;html=1;align=center;verticalAlign=middle;resizable=0;points=[];" parent="HXN2SgdadtcGcGAbl6m7-10" vertex="1" connectable="0">
          <mxGeometry x="0.0194" y="-2" relative="1" as="geometry">
            <mxPoint as="offset" />
          </mxGeometry>
        </mxCell>
        <mxCell id="HXN2SgdadtcGcGAbl6m7-7" value="检查异常&lt;br&gt;回滚配置" style="rounded=1;whiteSpace=wrap;html=1;shadow=0;labelBackgroundColor=none;strokeWidth=1;fontFamily=Verdana;fontSize=8;align=center;" parent="77e6c97f196da883-2" vertex="1">
          <mxGeometry x="20" y="270" width="100" height="60" as="geometry" />
        </mxCell>
        <mxCell id="HXN2SgdadtcGcGAbl6m7-15" value="观察数据" style="rounded=1;whiteSpace=wrap;html=1;shadow=0;labelBackgroundColor=none;strokeWidth=1;fontFamily=Verdana;fontSize=8;align=center;" parent="77e6c97f196da883-2" vertex="1">
          <mxGeometry x="20" y="430" width="100" height="60" as="geometry" />
        </mxCell>
        <mxCell id="HXN2SgdadtcGcGAbl6m7-23" value="观察数据" style="rounded=1;whiteSpace=wrap;html=1;shadow=0;labelBackgroundColor=none;strokeWidth=1;fontFamily=Verdana;fontSize=8;align=center;" parent="77e6c97f196da883-2" vertex="1">
          <mxGeometry x="20" y="640" width="100" height="60" as="geometry" />
        </mxCell>
        <mxCell id="77e6c97f196da883-26" value="选择检查者" style="edgeStyle=orthogonalEdgeStyle;rounded=1;html=1;labelBackgroundColor=none;startArrow=none;startFill=0;startSize=5;endArrow=classicThin;endFill=1;endSize=5;jettySize=auto;orthogonalLoop=1;strokeWidth=1;fontFamily=Verdana;fontSize=8" parent="77e6c97f196da883-1" source="77e6c97f196da883-8" target="77e6c97f196da883-11" edge="1">
          <mxGeometry relative="1" as="geometry" />
        </mxCell>
        <mxCell id="77e6c97f196da883-27" style="edgeStyle=orthogonalEdgeStyle;rounded=1;html=1;labelBackgroundColor=none;startArrow=none;startFill=0;startSize=5;endArrow=classicThin;endFill=1;endSize=5;jettySize=auto;orthogonalLoop=1;strokeWidth=1;fontFamily=Verdana;fontSize=8" parent="77e6c97f196da883-1" source="77e6c97f196da883-11" target="77e6c97f196da883-9" edge="1">
          <mxGeometry relative="1" as="geometry">
            <Array as="points">
              <mxPoint x="240" y="155" />
              <mxPoint x="70" y="155" />
            </Array>
          </mxGeometry>
        </mxCell>
        <mxCell id="HXN2SgdadtcGcGAbl6m7-1" value="校验通过" style="edgeLabel;html=1;align=center;verticalAlign=middle;resizable=0;points=[];" parent="77e6c97f196da883-27" vertex="1" connectable="0">
          <mxGeometry x="0.07" y="2" relative="1" as="geometry">
            <mxPoint as="offset" />
          </mxGeometry>
        </mxCell>
        <mxCell id="77e6c97f196da883-28" style="edgeStyle=orthogonalEdgeStyle;rounded=1;html=1;labelBackgroundColor=none;startArrow=none;startFill=0;startSize=5;endArrow=classicThin;endFill=1;endSize=5;jettySize=auto;orthogonalLoop=1;strokeWidth=1;fontFamily=Verdana;fontSize=8" parent="77e6c97f196da883-1" source="77e6c97f196da883-9" target="77e6c97f196da883-12" edge="1">
          <mxGeometry relative="1" as="geometry" />
        </mxCell>
        <mxCell id="HXN2SgdadtcGcGAbl6m7-2" value="确认配置策略" style="edgeLabel;html=1;align=center;verticalAlign=middle;resizable=0;points=[];" parent="77e6c97f196da883-28" vertex="1" connectable="0">
          <mxGeometry x="0.113" y="1" relative="1" as="geometry">
            <mxPoint as="offset" />
          </mxGeometry>
        </mxCell>
        <mxCell id="77e6c97f196da883-40" style="edgeStyle=orthogonalEdgeStyle;rounded=1;html=1;labelBackgroundColor=none;startArrow=none;startFill=0;startSize=5;endArrow=classicThin;endFill=1;endSize=5;jettySize=auto;orthogonalLoop=1;strokeWidth=1;fontFamily=Verdana;fontSize=8" parent="77e6c97f196da883-1" edge="1">
          <mxGeometry relative="1" as="geometry">
            <mxPoint x="830" y="690" as="targetPoint" />
          </mxGeometry>
        </mxCell>
        <mxCell id="77e6c97f196da883-3" value="配置检查者" style="swimlane;html=1;startSize=20;fillColor=#f5f5f5;fontColor=#333333;strokeColor=#666666;" parent="77e6c97f196da883-1" vertex="1">
          <mxGeometry x="160" y="20" width="160" height="880" as="geometry" />
        </mxCell>
        <mxCell id="77e6c97f196da883-11" value="校验配置&lt;br&gt;(可以任意选择云平台用户检查)" style="rounded=1;whiteSpace=wrap;html=1;shadow=0;labelBackgroundColor=none;strokeWidth=1;fontFamily=Verdana;fontSize=8;align=center;fillColor=#60a917;strokeColor=#2D7600;fontColor=#ffffff;" parent="77e6c97f196da883-3" vertex="1">
          <mxGeometry x="30" y="65" width="100" height="60" as="geometry" />
        </mxCell>
        <mxCell id="77e6c97f196da883-4" value="云平台-配置中心" style="swimlane;html=1;startSize=20;fillColor=#f5f5f5;fontColor=#333333;strokeColor=#666666;" parent="77e6c97f196da883-1" vertex="1">
          <mxGeometry x="320" y="20" width="160" height="880" as="geometry" />
        </mxCell>
        <mxCell id="77e6c97f196da883-12" value="检查配置&lt;br&gt;执行配置灰度策略" style="rounded=1;whiteSpace=wrap;html=1;shadow=0;labelBackgroundColor=none;strokeWidth=1;fontFamily=Verdana;fontSize=8;align=center;" parent="77e6c97f196da883-4" vertex="1">
          <mxGeometry x="30" y="155" width="100" height="60" as="geometry" />
        </mxCell>
        <mxCell id="HXN2SgdadtcGcGAbl6m7-17" value="执行全量配置全量生效" style="rounded=1;whiteSpace=wrap;html=1;shadow=0;labelBackgroundColor=none;strokeWidth=1;fontFamily=Verdana;fontSize=8;align=center;" parent="77e6c97f196da883-4" vertex="1">
          <mxGeometry x="30" y="550" width="100" height="60" as="geometry" />
        </mxCell>
        <mxCell id="HXN2SgdadtcGcGAbl6m7-33" value="配置持久化" style="rounded=1;whiteSpace=wrap;html=1;shadow=0;labelBackgroundColor=none;strokeWidth=1;fontFamily=Verdana;fontSize=8;align=center;fillColor=#60a917;strokeColor=#2D7600;fontColor=#ffffff;" parent="77e6c97f196da883-4" vertex="1">
          <mxGeometry x="30" y="760" width="100" height="60" as="geometry" />
        </mxCell>
        <mxCell id="77e6c97f196da883-5" value="服务器(命中灰度策略)" style="swimlane;html=1;startSize=20;fillColor=#f5f5f5;fontColor=#333333;strokeColor=#666666;" parent="77e6c97f196da883-1" vertex="1">
          <mxGeometry x="480" y="20" width="160" height="880" as="geometry" />
        </mxCell>
        <mxCell id="77e6c97f196da883-15" value="生效单台服务器" style="rounded=1;whiteSpace=wrap;html=1;shadow=0;labelBackgroundColor=none;strokeWidth=1;fontFamily=Verdana;fontSize=8;align=center;fillColor=#60a917;fontColor=#ffffff;strokeColor=#2D7600;" parent="77e6c97f196da883-5" vertex="1">
          <mxGeometry x="30" y="240" width="100" height="60" as="geometry" />
        </mxCell>
        <mxCell id="77e6c97f196da883-16" value="运行正确" style="rhombus;whiteSpace=wrap;html=1;rounded=0;shadow=0;labelBackgroundColor=none;strokeWidth=1;fontFamily=Verdana;fontSize=8;align=center;" parent="77e6c97f196da883-5" vertex="1">
          <mxGeometry x="40" y="320" width="80" height="60" as="geometry" />
        </mxCell>
        <mxCell id="77e6c97f196da883-17" value="生效灰度服务器" style="rounded=1;whiteSpace=wrap;html=1;shadow=0;labelBackgroundColor=none;strokeWidth=1;fontFamily=Verdana;fontSize=8;align=center;fillColor=#60a917;fontColor=#ffffff;strokeColor=#2D7600;" parent="77e6c97f196da883-5" vertex="1">
          <mxGeometry x="30" y="430" width="100" height="60" as="geometry" />
        </mxCell>
        <mxCell id="77e6c97f196da883-34" style="edgeStyle=orthogonalEdgeStyle;rounded=1;html=1;labelBackgroundColor=none;startArrow=none;startFill=0;startSize=5;endArrow=classicThin;endFill=1;endSize=5;jettySize=auto;orthogonalLoop=1;strokeColor=#000000;strokeWidth=1;fontFamily=Verdana;fontSize=8;fontColor=#000000;" parent="77e6c97f196da883-5" source="77e6c97f196da883-15" target="77e6c97f196da883-16" edge="1">
          <mxGeometry relative="1" as="geometry" />
        </mxCell>
        <mxCell id="77e6c97f196da883-35" value="是" style="edgeStyle=orthogonalEdgeStyle;rounded=1;html=1;labelBackgroundColor=none;startArrow=none;startFill=0;startSize=5;endArrow=classicThin;endFill=1;endSize=5;jettySize=auto;orthogonalLoop=1;strokeWidth=1;fontFamily=Verdana;fontSize=8" parent="77e6c97f196da883-5" source="77e6c97f196da883-16" target="77e6c97f196da883-17" edge="1">
          <mxGeometry relative="1" as="geometry" />
        </mxCell>
        <mxCell id="HXN2SgdadtcGcGAbl6m7-27" value="服务器" style="swimlane;html=1;startSize=20;fillColor=#f5f5f5;fontColor=#333333;strokeColor=#666666;" parent="77e6c97f196da883-1" vertex="1">
          <mxGeometry x="640" y="20" width="160" height="880" as="geometry" />
        </mxCell>
        <mxCell id="HXN2SgdadtcGcGAbl6m7-31" style="edgeStyle=orthogonalEdgeStyle;rounded=1;html=1;labelBackgroundColor=none;startArrow=none;startFill=0;startSize=5;endArrow=classicThin;endFill=1;endSize=5;jettySize=auto;orthogonalLoop=1;strokeColor=#000000;strokeWidth=1;fontFamily=Verdana;fontSize=8;fontColor=#000000;" parent="HXN2SgdadtcGcGAbl6m7-27" edge="1">
          <mxGeometry relative="1" as="geometry">
            <mxPoint x="80" y="300" as="sourcePoint" />
          </mxGeometry>
        </mxCell>
        <mxCell id="HXN2SgdadtcGcGAbl6m7-32" value="是" style="edgeStyle=orthogonalEdgeStyle;rounded=1;html=1;labelBackgroundColor=none;startArrow=none;startFill=0;startSize=5;endArrow=classicThin;endFill=1;endSize=5;jettySize=auto;orthogonalLoop=1;strokeWidth=1;fontFamily=Verdana;fontSize=8" parent="HXN2SgdadtcGcGAbl6m7-27" edge="1">
          <mxGeometry relative="1" as="geometry">
            <mxPoint x="80" y="380" as="sourcePoint" />
          </mxGeometry>
        </mxCell>
        <mxCell id="HXN2SgdadtcGcGAbl6m7-20" value="生效全量服务器" style="rounded=1;whiteSpace=wrap;html=1;shadow=0;labelBackgroundColor=none;strokeWidth=1;fontFamily=Verdana;fontSize=8;align=center;" parent="HXN2SgdadtcGcGAbl6m7-27" vertex="1">
          <mxGeometry x="30" y="550" width="100" height="60" as="geometry" />
        </mxCell>
        <mxCell id="77e6c97f196da883-6" value="服务器(未命中灰度策略)" style="swimlane;html=1;startSize=20;fillColor=#f5f5f5;fontColor=#333333;strokeColor=#666666;" parent="77e6c97f196da883-1" vertex="1">
          <mxGeometry x="800" y="20" width="160" height="880" as="geometry" />
        </mxCell>
        <mxCell id="HXN2SgdadtcGcGAbl6m7-4" style="edgeStyle=orthogonalEdgeStyle;rounded=0;orthogonalLoop=1;jettySize=auto;html=1;entryX=0;entryY=0.5;entryDx=0;entryDy=0;exitX=0.5;exitY=1;exitDx=0;exitDy=0;" parent="77e6c97f196da883-1" source="77e6c97f196da883-12" target="77e6c97f196da883-15" edge="1">
          <mxGeometry relative="1" as="geometry" />
        </mxCell>
        <mxCell id="HXN2SgdadtcGcGAbl6m7-5" style="edgeStyle=orthogonalEdgeStyle;rounded=0;orthogonalLoop=1;jettySize=auto;html=1;entryX=1;entryY=0.5;entryDx=0;entryDy=0;" parent="77e6c97f196da883-1" source="77e6c97f196da883-16" target="HXN2SgdadtcGcGAbl6m7-7" edge="1">
          <mxGeometry relative="1" as="geometry">
            <mxPoint x="240" y="340" as="targetPoint" />
            <Array as="points">
              <mxPoint x="270" y="370" />
              <mxPoint x="270" y="320" />
            </Array>
          </mxGeometry>
        </mxCell>
        <mxCell id="HXN2SgdadtcGcGAbl6m7-13" value="异常- TT/短信通知配置异常" style="edgeLabel;html=1;align=center;verticalAlign=middle;resizable=0;points=[];fontColor=#00CC00;" parent="HXN2SgdadtcGcGAbl6m7-5" vertex="1" connectable="0">
          <mxGeometry x="0.0044" y="-1" relative="1" as="geometry">
            <mxPoint as="offset" />
          </mxGeometry>
        </mxCell>
        <mxCell id="HXN2SgdadtcGcGAbl6m7-18" style="edgeStyle=orthogonalEdgeStyle;rounded=0;orthogonalLoop=1;jettySize=auto;html=1;entryX=0;entryY=0.5;entryDx=0;entryDy=0;" parent="77e6c97f196da883-1" source="HXN2SgdadtcGcGAbl6m7-15" target="HXN2SgdadtcGcGAbl6m7-17" edge="1">
          <mxGeometry relative="1" as="geometry">
            <Array as="points">
              <mxPoint x="70" y="600" />
            </Array>
          </mxGeometry>
        </mxCell>
        <mxCell id="HXN2SgdadtcGcGAbl6m7-19" value="全量生效" style="edgeLabel;html=1;align=center;verticalAlign=middle;resizable=0;points=[];fontColor=#00CC00;" parent="HXN2SgdadtcGcGAbl6m7-18" vertex="1" connectable="0">
          <mxGeometry x="0.373" relative="1" as="geometry">
            <mxPoint as="offset" />
          </mxGeometry>
        </mxCell>
        <mxCell id="HXN2SgdadtcGcGAbl6m7-21" style="edgeStyle=orthogonalEdgeStyle;rounded=0;orthogonalLoop=1;jettySize=auto;html=1;" parent="77e6c97f196da883-1" source="HXN2SgdadtcGcGAbl6m7-17" target="HXN2SgdadtcGcGAbl6m7-20" edge="1">
          <mxGeometry relative="1" as="geometry" />
        </mxCell>
        <mxCell id="HXN2SgdadtcGcGAbl6m7-24" style="edgeStyle=orthogonalEdgeStyle;rounded=0;orthogonalLoop=1;jettySize=auto;html=1;" parent="77e6c97f196da883-1" source="HXN2SgdadtcGcGAbl6m7-20" edge="1">
          <mxGeometry relative="1" as="geometry">
            <mxPoint x="120" y="690" as="targetPoint" />
            <Array as="points">
              <mxPoint x="720" y="600" />
              <mxPoint x="720" y="690" />
              <mxPoint x="120" y="690" />
            </Array>
          </mxGeometry>
        </mxCell>
        <mxCell id="HXN2SgdadtcGcGAbl6m7-34" style="edgeStyle=orthogonalEdgeStyle;rounded=0;orthogonalLoop=1;jettySize=auto;html=1;entryX=0;entryY=0.5;entryDx=0;entryDy=0;fontColor=#00CC00;" parent="77e6c97f196da883-1" source="HXN2SgdadtcGcGAbl6m7-23" target="HXN2SgdadtcGcGAbl6m7-33" edge="1">
          <mxGeometry relative="1" as="geometry">
            <Array as="points">
              <mxPoint x="70" y="810" />
            </Array>
          </mxGeometry>
        </mxCell>
        <mxCell id="HXN2SgdadtcGcGAbl6m7-35" value="正式上线" style="edgeLabel;html=1;align=center;verticalAlign=middle;resizable=0;points=[];fontColor=#000000;" parent="HXN2SgdadtcGcGAbl6m7-34" vertex="1" connectable="0">
          <mxGeometry x="-0.4571" y="2" relative="1" as="geometry">
            <mxPoint as="offset" />
          </mxGeometry>
        </mxCell>
        <mxCell id="HXN2SgdadtcGcGAbl6m7-14" style="edgeStyle=orthogonalEdgeStyle;rounded=0;orthogonalLoop=1;jettySize=auto;html=1;" parent="1" source="77e6c97f196da883-17" edge="1">
          <mxGeometry relative="1" as="geometry">
            <mxPoint x="190" y="520" as="targetPoint" />
          </mxGeometry>
        </mxCell>
        <mxCell id="HXN2SgdadtcGcGAbl6m7-16" value="通知研发配置版本生效,披露生效的服务器列表" style="edgeLabel;html=1;align=center;verticalAlign=middle;resizable=0;points=[];fontColor=#00CC00;" parent="HXN2SgdadtcGcGAbl6m7-14" vertex="1" connectable="0">
          <mxGeometry x="0.2256" relative="1" as="geometry">
            <mxPoint as="offset" />
          </mxGeometry>
        </mxCell>
        <mxCell id="HXN2SgdadtcGcGAbl6m7-25" value="Git仓库" style="swimlane;html=1;startSize=20;fillColor=#f5f5f5;fontColor=#333333;strokeColor=#666666;" parent="1" vertex="1">
          <mxGeometry x="870" y="60" width="160" height="880" as="geometry" />
        </mxCell>
        <mxCell id="HXN2SgdadtcGcGAbl6m7-26" value="Git持久化(仓库+目录)" style="rounded=1;whiteSpace=wrap;html=1;shadow=0;labelBackgroundColor=none;strokeWidth=1;fontFamily=Verdana;fontSize=8;align=center;fillColor=#60a917;fontColor=#ffffff;strokeColor=#2D7600;" parent="HXN2SgdadtcGcGAbl6m7-25" vertex="1">
          <mxGeometry x="30" y="760" width="100" height="60" as="geometry" />
        </mxCell>
        <mxCell id="HXN2SgdadtcGcGAbl6m7-36" style="edgeStyle=orthogonalEdgeStyle;rounded=0;orthogonalLoop=1;jettySize=auto;html=1;fontColor=#000000;" parent="1" source="HXN2SgdadtcGcGAbl6m7-33" target="HXN2SgdadtcGcGAbl6m7-26" edge="1">
          <mxGeometry relative="1" as="geometry" />
        </mxCell>
        <mxCell id="XSK-Ej6Rtbx3pYxzNYwq-9" style="edgeStyle=orthogonalEdgeStyle;rounded=0;orthogonalLoop=1;jettySize=auto;html=1;entryX=0;entryY=0.5;entryDx=0;entryDy=0;endArrow=none;endFill=0;" parent="1" source="XSK-Ej6Rtbx3pYxzNYwq-2" target="XSK-Ej6Rtbx3pYxzNYwq-3" edge="1">
          <mxGeometry relative="1" as="geometry">
            <mxPoint x="293" y="1169" as="targetPoint" />
            <Array as="points">
              <mxPoint x="295" y="1129" />
            </Array>
          </mxGeometry>
        </mxCell>
        <mxCell id="XSK-Ej6Rtbx3pYxzNYwq-2" value="&lt;span&gt;project-dir&lt;/span&gt;" style="rounded=1;whiteSpace=wrap;html=1;fillColor=#d5e8d4;strokeColor=#82b366;" parent="1" vertex="1">
          <mxGeometry x="239" y="1007" width="120" height="60" as="geometry" />
        </mxCell>
        <mxCell id="XSK-Ej6Rtbx3pYxzNYwq-10" style="edgeStyle=orthogonalEdgeStyle;rounded=0;orthogonalLoop=1;jettySize=auto;html=1;entryX=0;entryY=0.5;entryDx=0;entryDy=0;endArrow=none;endFill=0;" parent="1" source="XSK-Ej6Rtbx3pYxzNYwq-3" target="XSK-Ej6Rtbx3pYxzNYwq-4" edge="1">
          <mxGeometry relative="1" as="geometry">
            <Array as="points">
              <mxPoint x="433" y="1206" />
            </Array>
          </mxGeometry>
        </mxCell>
        <mxCell id="XSK-Ej6Rtbx3pYxzNYwq-11" style="edgeStyle=orthogonalEdgeStyle;rounded=0;orthogonalLoop=1;jettySize=auto;html=1;entryX=0;entryY=0.5;entryDx=0;entryDy=0;endArrow=none;endFill=0;" parent="1" source="XSK-Ej6Rtbx3pYxzNYwq-3" target="XSK-Ej6Rtbx3pYxzNYwq-5" edge="1">
          <mxGeometry relative="1" as="geometry">
            <Array as="points">
              <mxPoint x="433" y="1334" />
            </Array>
          </mxGeometry>
        </mxCell>
        <mxCell id="XSK-Ej6Rtbx3pYxzNYwq-3" value="&lt;span&gt;conf&lt;/span&gt;" style="rounded=1;whiteSpace=wrap;html=1;fillColor=#d5e8d4;strokeColor=#82b366;" parent="1" vertex="1">
          <mxGeometry x="373" y="1099" width="120" height="60" as="geometry" />
        </mxCell>
        <mxCell id="-Ba3HVB5AIwngs6JfTIK-7" style="edgeStyle=orthogonalEdgeStyle;rounded=0;orthogonalLoop=1;jettySize=auto;html=1;entryX=0;entryY=0.5;entryDx=0;entryDy=0;startArrow=none;startFill=0;endArrow=none;endFill=0;" edge="1" parent="1" source="XSK-Ej6Rtbx3pYxzNYwq-4" target="XSK-Ej6Rtbx3pYxzNYwq-6">
          <mxGeometry relative="1" as="geometry" />
        </mxCell>
        <mxCell id="XSK-Ej6Rtbx3pYxzNYwq-4" value="&lt;span&gt;production&lt;/span&gt;" style="rounded=1;whiteSpace=wrap;html=1;fillColor=#d5e8d4;strokeColor=#82b366;" parent="1" vertex="1">
          <mxGeometry x="509" y="1176" width="120" height="60" as="geometry" />
        </mxCell>
        <mxCell id="-Ba3HVB5AIwngs6JfTIK-8" style="edgeStyle=orthogonalEdgeStyle;rounded=0;orthogonalLoop=1;jettySize=auto;html=1;entryX=0;entryY=0.5;entryDx=0;entryDy=0;startArrow=none;startFill=0;endArrow=none;endFill=0;" edge="1" parent="1" source="XSK-Ej6Rtbx3pYxzNYwq-5" target="XSK-Ej6Rtbx3pYxzNYwq-7">
          <mxGeometry relative="1" as="geometry" />
        </mxCell>
        <mxCell id="XSK-Ej6Rtbx3pYxzNYwq-5" value="&lt;span&gt;test&lt;/span&gt;" style="rounded=1;whiteSpace=wrap;html=1;fillColor=#d5e8d4;strokeColor=#82b366;" parent="1" vertex="1">
          <mxGeometry x="515" y="1304" width="120" height="60" as="geometry" />
        </mxCell>
        <mxCell id="XSK-Ej6Rtbx3pYxzNYwq-6" value="mixer-dynamic.yaml" style="rounded=0;whiteSpace=wrap;html=1;fillColor=#f5f5f5;fontColor=#333333;strokeColor=#666666;" parent="1" vertex="1">
          <mxGeometry x="694" y="1193.5" width="137" height="25" as="geometry" />
        </mxCell>
        <mxCell id="XSK-Ej6Rtbx3pYxzNYwq-7" value="mixer-dynamic.yaml" style="rounded=0;whiteSpace=wrap;html=1;fillColor=#f5f5f5;fontColor=#333333;strokeColor=#666666;" parent="1" vertex="1">
          <mxGeometry x="694" y="1321.5" width="137" height="25" as="geometry" />
        </mxCell>
        <mxCell id="-Ba3HVB5AIwngs6JfTIK-9" style="edgeStyle=orthogonalEdgeStyle;rounded=0;orthogonalLoop=1;jettySize=auto;html=1;entryX=0;entryY=0.5;entryDx=0;entryDy=0;startArrow=none;startFill=0;endArrow=none;endFill=0;" edge="1" parent="1" source="XSK-Ej6Rtbx3pYxzNYwq-14" target="XSK-Ej6Rtbx3pYxzNYwq-15">
          <mxGeometry relative="1" as="geometry" />
        </mxCell>
        <mxCell id="XSK-Ej6Rtbx3pYxzNYwq-14" value="&lt;span&gt;dev&lt;/span&gt;" style="rounded=1;whiteSpace=wrap;html=1;fillColor=#d5e8d4;strokeColor=#82b366;" parent="1" vertex="1">
          <mxGeometry x="515" y="1432" width="120" height="60" as="geometry" />
        </mxCell>
        <mxCell id="XSK-Ej6Rtbx3pYxzNYwq-15" value="mixer-dynamic.yaml" style="rounded=0;whiteSpace=wrap;html=1;fillColor=#f5f5f5;fontColor=#333333;strokeColor=#666666;" parent="1" vertex="1">
          <mxGeometry x="694" y="1449.5" width="137" height="25" as="geometry" />
        </mxCell>
        <mxCell id="XSK-Ej6Rtbx3pYxzNYwq-16" style="edgeStyle=orthogonalEdgeStyle;rounded=0;orthogonalLoop=1;jettySize=auto;html=1;entryX=0;entryY=0.5;entryDx=0;entryDy=0;endArrow=none;endFill=0;exitX=0.5;exitY=1;exitDx=0;exitDy=0;" parent="1" source="XSK-Ej6Rtbx3pYxzNYwq-3" target="XSK-Ej6Rtbx3pYxzNYwq-14" edge="1">
          <mxGeometry relative="1" as="geometry">
            <mxPoint x="443" y="1169" as="sourcePoint" />
            <mxPoint x="525" y="1344" as="targetPoint" />
            <Array as="points">
              <mxPoint x="433" y="1462" />
            </Array>
          </mxGeometry>
        </mxCell>
        <mxCell id="-Ba3HVB5AIwngs6JfTIK-4" value="完整制品目录" style="text;html=1;strokeColor=none;fillColor=none;align=center;verticalAlign=middle;whiteSpace=wrap;rounded=0;dashed=1;" vertex="1" parent="1">
          <mxGeometry x="390" y="984" width="227" height="18" as="geometry" />
        </mxCell>
        <mxCell id="-Ba3HVB5AIwngs6JfTIK-10" style="edgeStyle=orthogonalEdgeStyle;rounded=0;orthogonalLoop=1;jettySize=auto;html=1;entryX=0;entryY=0.5;entryDx=0;entryDy=0;startArrow=none;startFill=0;endArrow=none;endFill=0;" edge="1" parent="1" source="-Ba3HVB5AIwngs6JfTIK-5" target="-Ba3HVB5AIwngs6JfTIK-6">
          <mxGeometry relative="1" as="geometry" />
        </mxCell>
        <mxCell id="-Ba3HVB5AIwngs6JfTIK-5" value="&lt;span&gt;heracles-conf&lt;/span&gt;" style="rounded=1;whiteSpace=wrap;html=1;fillColor=#fff2cc;strokeColor=#d6b656;" vertex="1" parent="1">
          <mxGeometry x="379" y="1572" width="120" height="60" as="geometry" />
        </mxCell>
        <mxCell id="-Ba3HVB5AIwngs6JfTIK-6" value="mixer-dynamic.yaml" style="rounded=0;whiteSpace=wrap;html=1;fillColor=#fff2cc;strokeColor=#d6b656;" vertex="1" parent="1">
          <mxGeometry x="557" y="1589.5" width="137" height="25" as="geometry" />
        </mxCell>
        <mxCell id="-Ba3HVB5AIwngs6JfTIK-11" value="" style="shape=flexArrow;endArrow=classic;html=1;rounded=0;" edge="1" parent="1">
          <mxGeometry width="50" height="50" relative="1" as="geometry">
            <mxPoint x="64" y="1157" as="sourcePoint" />
            <mxPoint x="192" y="1157" as="targetPoint" />
          </mxGeometry>
        </mxCell>
        <mxCell id="-Ba3HVB5AIwngs6JfTIK-14" value="①-配置随制品发布" style="text;html=1;strokeColor=none;fillColor=none;align=center;verticalAlign=middle;whiteSpace=wrap;rounded=0;dashed=1;" vertex="1" parent="1">
          <mxGeometry x="70" y="1114" width="107" height="30" as="geometry" />
        </mxCell>
        <mxCell id="-Ba3HVB5AIwngs6JfTIK-15" value="" style="endArrow=classic;html=1;rounded=0;" edge="1" parent="1">
          <mxGeometry width="50" height="50" relative="1" as="geometry">
            <mxPoint x="20" y="1060" as="sourcePoint" />
            <mxPoint x="15" y="1957" as="targetPoint" />
          </mxGeometry>
        </mxCell>
      </root>
    </mxGraphModel>
  </diagram>
</mxfile>
